# xmcd CD database file
#
# Track frame offsets:
#	150
#	30019
#	62029
#	86196
#	111585
#	136092
#	156964
#	175326
#	215896
#	241705
#	261510
#
# Disc length: 3917 seconds
#
# Revision: 3
# Processed by: cddbd v1.5.2PL0 Copyright (c) Steve Scherf et al.
# Submitted via: CDex 1.51
#
DISCID=9b0f4b0b
DTITLE=Memo Gonzalez and The Bluescasters - Let´s All Get Drunk And Get Tattooed
DYEAR=1900
DGENRE=Blues
TTITLE0=Lone Wolf Blues
TTITLE1=Tramp
TTITLE2=F' N Shuffle
TTITLE3=Hey, Little Girl
TTITLE4=Mama, I Like Your Thigs
TTITLE5=300 Pounds Of Joy
TTITLE6=Sweet Little Thing
TTITLE7=Puppy, Puppy
TTITLE8=Get It Hot
TTITLE9=Walk That Walk
TTITLE10=The Break Song
EXTD=
EXTT0=
EXTT1=
EXTT2=
EXTT3=
EXTT4=
EXTT5=
EXTT6=
EXTT7=
EXTT8=
EXTT9=
EXTT10=
PLAYORDER=
